<svg xmlns="http://www.w3.org/2000/svg" xmlns:xlink="http://www.w3.org/1999/xlink" width="500" zoomAndPan="magnify" viewBox="0 0 375 374.999991" height="500" preserveAspectRatio="xMidYMid meet" version="1.0"><rect x="-37.5" width="450" fill="#ffffff" y="-37.499999" height="449.999989" fill-opacity="1"/><rect x="-37.5" width="450" fill="#ffffff" y="-37.499999" height="449.999989" fill-opacity="1"/><rect x="-37.5" width="450" fill="#a8a8a8" y="-37.499999" height="449.999989" fill-opacity="1"/><path fill="#20315f" d="M 372.53125 127.730469 L 374.710938 125.550781 L 372.53125 123.367188 L 312.964844 63.804688 L 374.710938 2.058594 L 372.53125 -0.125 L 310.785156 61.621094 L 249.039062 -0.125 L 246.859375 2.058594 L 308.601562 63.804688 L 249.039062 123.367188 L 127.730469 2.058594 L 125.550781 -0.125 L 63.804688 61.621094 L 2.058594 -0.125 L -0.125 2.058594 L 61.621094 63.804688 L -0.125 125.550781 L 2.058594 127.730469 L 63.804688 65.984375 L 123.367188 125.550781 L 2.058594 246.859375 L -0.125 249.039062 L 61.621094 310.785156 L -0.125 372.53125 L 2.058594 374.710938 L 63.804688 312.964844 L 125.550781 374.710938 L 127.730469 372.53125 L 65.984375 310.785156 L 125.550781 251.222656 L 247.945312 373.621094 L 249.039062 374.710938 L 310.785156 312.96875 L 371.433594 373.621094 L 372.53125 374.710938 L 374.710938 372.53125 L 312.96875 310.785156 L 373.621094 250.132812 L 374.710938 249.039062 L 372.53125 246.859375 L 310.785156 308.597656 L 251.226562 249.039062 Z M 251.222656 125.550781 L 310.785156 65.984375 L 370.347656 125.550781 L 249.039062 246.855469 L 189.476562 187.292969 L 249.039062 127.730469 Z M 65.984375 63.804688 L 125.550781 4.238281 L 246.859375 125.550781 L 187.292969 185.113281 L 127.730469 125.550781 L 125.550781 123.367188 Z M 63.804688 308.601562 L 4.238281 249.039062 L 125.550781 127.730469 L 185.113281 187.292969 L 125.550781 246.859375 L 123.367188 249.039062 Z M 249.039062 370.34375 L 127.730469 249.039062 L 187.292969 189.476562 L 247.945312 250.128906 L 249.019531 251.199219 L 308.597656 310.785156 Z M 249.039062 370.34375 " fill-opacity="1" fill-rule="nonzero"/></svg>