<svg xmlns="http://www.w3.org/2000/svg" xmlns:xlink="http://www.w3.org/1999/xlink" width="500" zoomAndPan="magnify" viewBox="0 0 375 374.999991" height="500" preserveAspectRatio="xMidYMid meet" version="1.0"><rect x="-37.5" width="450" fill="#ffffff" y="-37.499999" height="449.999989" fill-opacity="1"/><rect x="-37.5" width="450" fill="#a8a8a8" y="-37.499999" height="449.999989" fill-opacity="1"/><path fill="#20315f" d="M 374.925781 34.855469 L 374.925781 31.332031 C 373.425781 32.457031 371.851562 33.578125 370.351562 34.703125 C 366.679688 37.402344 358.960938 42.273438 358.960938 42.273438 C 358.882812 42.273438 358.882812 42.273438 358.808594 42.273438 C 358.734375 42.199219 347.492188 33.054688 341.792969 28.707031 C 342.621094 26.234375 345.691406 13.117188 348.691406 0.0742188 L 345.46875 0.0742188 C 342.621094 11.84375 339.847656 23.3125 338.945312 26.382812 C 338.570312 26.382812 313.6875 6.894531 304.84375 0.0742188 L 297.273438 0.0742188 C 295.847656 1.347656 294.421875 2.699219 293 3.972656 C 287.453125 8.996094 272.238281 22.335938 272.238281 22.335938 C 272.238281 22.335938 268.488281 6.746094 267.589844 3.074219 C 267.363281 2.023438 267.140625 1.050781 266.839844 0 L 263.992188 0 C 266.089844 8.621094 268.1875 17.390625 269.464844 22.488281 C 264.066406 22.5625 210.773438 17.839844 206.574219 17.6875 C 214.820312 12.066406 222.691406 5.996094 230.5625 0 L 225.914062 0 C 218.269531 5.695312 210.472656 11.167969 202.828125 16.941406 C 201.929688 11.316406 201.105469 5.621094 200.28125 0 L 197.507812 0 C 200.128906 16.863281 206.425781 56.742188 208.824219 74.054688 C 203.953125 71.957031 199.082031 70.007812 194.207031 68.058594 C 180.640625 62.738281 166.851562 57.640625 152.757812 53.894531 C 163.550781 38.902344 174.121094 23.761719 185.0625 8.84375 C 187.238281 5.921875 189.410156 3 191.585938 0.0742188 L 188.136719 0.0742188 C 186.261719 2.625 184.390625 5.171875 182.515625 7.71875 C 175.996094 16.640625 169.398438 25.558594 163.027344 34.554688 C 160.554688 22.859375 157.554688 11.394531 154.332031 0 L 151.484375 0 C 152.234375 2.546875 152.984375 5.097656 153.65625 7.71875 C 154.632812 11.316406 155.679688 15.066406 156.582031 18.8125 C 146.613281 16.714844 136.71875 14.390625 126.824219 11.769531 C 124.5 7.796875 122.101562 3.898438 119.628906 0 L 116.03125 0 C 118.503906 3.972656 120.976562 7.945312 123.449219 11.917969 C 118.054688 16.414062 112.882812 21.0625 107.636719 25.710938 C 102.761719 30.058594 97.742188 34.328125 93.167969 38.976562 C 87.171875 32.230469 81.101562 25.410156 74.582031 19.261719 C 75.105469 18.589844 75.703125 17.914062 76.230469 17.238281 C 80.953125 11.46875 85.671875 5.773438 90.394531 0 L 86.5 0 C 82.375 5.097656 78.328125 10.117188 74.207031 15.214844 C 69.332031 21.136719 64.535156 27.058594 59.738281 32.980469 C 58.691406 27.882812 55.765625 13.34375 52.992188 0 L 50.070312 0 C 53.066406 14.765625 56.515625 31.554688 57.414062 35.902344 C 52.84375 41.601562 48.570312 46.695312 44 51.945312 C 42.425781 47.222656 35.078125 23.609375 33.355469 17.988281 C 31.480469 11.992188 29.683594 5.996094 27.882812 0 L 24.808594 0 C 25.859375 3.523438 26.984375 6.972656 28.109375 10.492188 C 21.136719 15.664062 14.167969 20.835938 7.195312 26.085938 C 4.871094 27.808594 2.546875 29.53125 0.226562 31.332031 L 0.226562 34.855469 C 2.699219 32.980469 5.171875 31.179688 7.644531 29.308594 C 14.691406 23.984375 21.886719 18.738281 28.933594 13.417969 C 29.53125 15.289062 30.132812 17.238281 30.730469 19.113281 C 32.53125 24.960938 40.175781 49.019531 41.898438 53.667969 C 33.804688 58.839844 23.910156 64.535156 15.289062 70.007812 C 10.195312 73.230469 5.097656 76.453125 0.148438 79.828125 L 0.148438 83.574219 C 3 81.625 5.847656 79.675781 8.769531 77.726562 C 13.417969 88.148438 18.664062 98.339844 23.984375 108.460938 C 18.589844 118.652344 12.59375 128.472656 6.597656 138.367188 C 4.421875 136.417969 2.324219 134.46875 0.148438 132.445312 L 0.148438 136.417969 C 2.171875 138.292969 4.273438 140.164062 6.296875 142.039062 C 11.394531 146.613281 16.566406 151.035156 21.738281 155.457031 C 26.984375 159.878906 32.15625 164.453125 37.777344 168.347656 C 37.777344 168.425781 37.777344 168.425781 37.703125 168.5 C 34.40625 167.523438 18.738281 162.351562 0.0742188 156.132812 L 0.0742188 159.054688 C 17.765625 164.976562 32.230469 169.847656 35.152344 170.597656 C 32.980469 172.320312 14.839844 182.589844 0.0742188 190.984375 L 0.0742188 194.359375 C 13.417969 186.863281 30.207031 177.195312 36.351562 173.070312 C 31.554688 182.515625 26.984375 192.109375 22.113281 201.480469 C 16.640625 212.046875 10.867188 222.390625 5.171875 232.808594 C 5.023438 233.109375 4.945312 233.410156 5.023438 233.636719 C 3.371094 233.636719 1.722656 233.710938 0.0742188 233.710938 L 0.0742188 236.484375 C 21.511719 236.035156 49.246094 235.433594 50.519531 235.507812 C 44 239.855469 18.886719 257.320312 0.148438 270.511719 L 0.148438 273.960938 C 6.070312 269.761719 12.742188 265.117188 19.414062 260.46875 C 19.789062 276.285156 20.011719 292.101562 20.164062 307.914062 C 20.164062 309.5625 20.164062 311.136719 20.164062 312.789062 C 15.890625 311.289062 8.394531 308.964844 0.148438 306.566406 L 0.148438 309.789062 C 8.320312 312.1875 15.816406 314.363281 20.238281 315.710938 C 20.238281 328.976562 20.089844 342.320312 20.386719 355.585938 C 14.992188 350.9375 7.421875 344.71875 0.148438 338.796875 L 0.148438 342.394531 C 9.519531 350.113281 18.4375 357.535156 20.089844 359.109375 C 20.089844 359.109375 20.164062 359.183594 20.238281 359.183594 C 20.238281 359.335938 20.238281 359.558594 20.3125 359.710938 C 21.738281 364.730469 23.3125 369.828125 24.808594 374.851562 L 27.882812 374.851562 C 26.234375 369.527344 24.585938 364.207031 22.859375 358.882812 C 22.859375 358.808594 22.859375 358.808594 22.785156 358.734375 C 22.785156 358.660156 22.859375 358.585938 22.859375 358.511719 C 30.433594 356.1875 38.003906 354.164062 45.871094 352.964844 C 46.621094 357.011719 48.269531 365.554688 50.144531 374.925781 L 53.066406 374.925781 C 51.195312 365.628906 49.394531 356.9375 48.421875 352.363281 C 48.496094 352.214844 48.570312 352.140625 48.644531 351.988281 C 54.417969 343.292969 69.558594 318.558594 73.230469 312.488281 C 77.953125 319.984375 98.414062 349.664062 103.0625 354.910156 C 97.441406 361.507812 91.96875 368.253906 86.5 374.925781 L 90.394531 374.925781 C 95.269531 369.003906 100.140625 363.082031 104.863281 357.085938 C 107.035156 360.234375 113.558594 370.878906 114.53125 372.527344 C 115.054688 373.351562 115.503906 374.175781 116.03125 374.925781 L 119.628906 374.925781 C 118.878906 373.800781 118.128906 372.675781 117.378906 371.476562 C 116.179688 369.679688 109.210938 357.835938 106.511719 354.386719 C 106.4375 354.238281 106.359375 354.085938 106.210938 354.011719 C 111.457031 339.320312 115.878906 324.253906 120.902344 309.488281 C 123.375 302.21875 125.925781 295.023438 128.546875 287.828125 C 130.648438 303.492188 134.992188 318.933594 139.339844 334.074219 C 143.238281 347.714844 147.511719 361.285156 151.410156 374.925781 L 154.257812 374.925781 C 152.457031 368.703125 150.660156 362.558594 148.785156 356.335938 C 148.859375 356.261719 148.859375 356.113281 148.9375 356.035156 C 154.632812 340.371094 160.628906 325.078125 167.824219 310.089844 C 175.019531 314.734375 182.289062 319.308594 189.636719 323.730469 C 198.257812 328.828125 207.027344 333.699219 216.019531 337.972656 C 206.425781 350.113281 197.132812 362.484375 187.988281 374.925781 L 191.433594 374.925781 C 193.085938 372.75 194.734375 370.503906 196.382812 368.328125 C 196.605469 369.601562 196.90625 371.925781 197.429688 374.925781 L 200.203125 374.925781 C 199.679688 371.703125 199.230469 368.402344 198.707031 365.179688 C 205.527344 356.113281 211.671875 347.792969 218.570312 338.871094 C 220.21875 339.097656 249.898438 350.113281 255.445312 351.988281 C 247.125 358.433594 238.957031 365.105469 230.5625 371.476562 C 228.988281 372.675781 227.414062 373.800781 225.914062 375 L 230.5625 375 C 231.085938 374.625 231.609375 374.175781 232.136719 373.800781 C 241.054688 367.054688 250.125 360.308594 258.667969 353.113281 C 259.570312 356.9375 261.742188 365.855469 263.917969 375 L 266.691406 375 C 265.339844 369.152344 263.992188 363.308594 262.867188 358.585938 C 262.34375 356.410156 261.144531 351.914062 261.21875 351.765625 C 261.21875 351.765625 267.589844 331 270.511719 321.332031 C 271.863281 316.910156 273.136719 312.5625 274.410156 308.140625 C 279.058594 318.335938 296.820312 360.683594 300.871094 371.777344 C 299.671875 372.828125 298.472656 373.949219 297.273438 375 L 304.84375 375 C 304.167969 374.476562 303.566406 374.027344 303.117188 373.652344 C 303.492188 373.5 351.613281 332.351562 357.234375 328.003906 C 357.386719 328.152344 349.589844 358.585938 348.167969 364.507812 C 347.339844 367.878906 346.515625 371.476562 345.691406 375 L 348.765625 375 C 349.964844 369.753906 351.238281 364.507812 352.289062 359.933594 C 353.488281 354.613281 358.136719 335.273438 359.785156 329.652344 C 360.234375 330.027344 367.65625 336.546875 369.679688 338.195312 C 371.402344 339.621094 373.199219 341.121094 374.925781 342.542969 L 374.925781 338.796875 C 373.277344 337.449219 371.628906 336.097656 370.054688 334.75 C 369.078125 333.925781 363.53125 329.503906 358.058594 323.65625 C 349.664062 314.660156 342.09375 304.542969 338.722656 299.519531 C 344.644531 300.945312 360.832031 305.589844 374.925781 309.714844 L 374.925781 306.566406 C 362.558594 302.96875 348.617188 299.144531 341.421875 297.496094 C 344.34375 295.621094 362.632812 282.503906 366.980469 279.433594 C 369.378906 277.707031 372.078125 275.835938 374.925781 273.886719 L 374.925781 270.4375 C 371.628906 272.761719 368.480469 274.933594 365.707031 276.957031 C 363.15625 278.757812 351.238281 287.003906 347.792969 289.550781 C 345.167969 291.5 342.320312 293.222656 339.769531 295.246094 C 344.042969 279.433594 354.539062 243.828125 356.1875 237.007812 C 360.757812 236.859375 367.429688 236.707031 374.925781 236.558594 L 374.925781 233.859375 C 367.804688 234.007812 361.433594 234.160156 356.9375 234.460938 C 358.058594 230.785156 359.109375 227.039062 360.234375 223.367188 C 362.707031 215.046875 365.554688 206.726562 367.878906 198.332031 C 370.054688 197.132812 372.453125 195.78125 374.925781 194.359375 L 374.925781 190.984375 C 372.601562 192.335938 370.429688 193.609375 368.328125 194.734375 C 368.179688 194.582031 341.046875 152.683594 335.421875 145.863281 C 348.316406 150.058594 362.484375 154.78125 374.925781 158.980469 L 374.925781 156.054688 C 361.132812 151.484375 345.691406 146.386719 332.199219 141.964844 C 332.199219 141.964844 332.199219 141.964844 332.199219 141.890625 C 331.75 133.792969 331.375 125.699219 331.078125 117.605469 C 330.777344 109.507812 330.550781 101.488281 330.175781 93.394531 C 333.398438 97.214844 363.308594 125.398438 367.054688 128.996094 C 369.679688 131.472656 372.226562 133.871094 374.925781 136.269531 L 374.925781 132.296875 C 372.527344 130.046875 370.128906 127.796875 367.730469 125.476562 C 363.082031 121.050781 335.199219 95.117188 331.601562 90.84375 C 341.34375 90.84375 365.855469 89.722656 366.003906 89.644531 C 366.082031 89.722656 370.578125 86.273438 372.078125 85.300781 C 372.976562 84.699219 373.949219 84.023438 374.851562 83.425781 L 374.851562 79.675781 C 373.574219 80.5 372.300781 81.402344 371.101562 82.226562 C 369.601562 83.273438 368.105469 84.324219 366.605469 85.449219 C 366.53125 84.847656 366.53125 84.25 366.457031 83.800781 C 366.15625 82 365.855469 80.203125 365.554688 78.328125 C 364.957031 74.582031 364.355469 70.832031 363.757812 67.085938 C 362.558594 59.515625 361.507812 52.394531 360.085938 44.898438 C 360.085938 44.898438 367.128906 40.402344 370.429688 38.003906 C 371.925781 37.027344 373.425781 35.902344 374.925781 34.855469 Z M 301.09375 0.375 C 306.042969 4.421875 319.757812 15.214844 332.574219 25.261719 C 313.910156 24.136719 295.324219 22.785156 276.660156 21.960938 C 284.378906 14.765625 300.121094 1.199219 301.09375 0.375 Z M 273.210938 27.359375 C 277.109375 32.980469 281.53125 38.300781 285.804688 43.625 C 289.175781 47.894531 292.699219 52.019531 296.148438 56.214844 C 296.074219 56.214844 271.785156 66.183594 267.140625 68.058594 C 269.914062 54.640625 272.085938 41 273.210938 27.359375 Z M 299.296875 59.890625 C 308.066406 70.082031 316.984375 80.125 326.578125 89.570312 C 322.382812 96.09375 303.792969 121.203125 298.84375 127.421875 C 298.996094 116.703125 299.21875 105.988281 299.296875 95.269531 C 299.296875 83.5 299.59375 71.65625 299.296875 59.890625 Z M 327.402344 93.242188 C 327.402344 108.535156 328.378906 123.824219 329.128906 139.117188 C 329.128906 139.792969 329.203125 140.390625 329.203125 141.066406 C 314.585938 136.34375 302.742188 132.671875 298.769531 131.847656 C 298.769531 131.847656 298.769531 131.847656 298.769531 131.769531 C 303.644531 125.773438 322.90625 100.214844 327.402344 93.242188 Z M 328.378906 143.613281 C 318.785156 156.804688 300.121094 185.289062 295.472656 191.660156 C 295.546875 188.660156 295.546875 186.488281 295.699219 183.488281 C 295.996094 175.09375 296.445312 166.699219 296.972656 158.304688 C 297.496094 150.433594 298.320312 142.488281 298.695312 134.542969 C 304.542969 136.042969 315.484375 139.492188 328.378906 143.613281 Z M 254.324219 108.910156 C 252.296875 116.179688 250.425781 123.449219 249.300781 130.871094 C 247.5 124.199219 245.328125 117.605469 243.152344 111.082031 C 240.605469 103.738281 238.058594 96.167969 234.757812 89.046875 C 235.132812 89.195312 254.097656 97.515625 257.019531 98.789062 C 256.121094 102.238281 255.296875 105.386719 254.324219 108.910156 Z M 257.996094 106.285156 C 258.519531 104.335938 259.121094 102.386719 259.644531 100.441406 C 271.1875 111.234375 294.574219 132.820312 294.574219 132.820312 C 293.148438 134.621094 253.125 194.660156 248.699219 203.726562 C 248.925781 193.007812 249.152344 182.289062 249.601562 171.648438 C 250.050781 160.328125 251.25 137.46875 251.25 137.390625 C 252.296875 126.675781 255.070312 116.480469 257.996094 106.285156 Z M 240.457031 111.757812 C 243.152344 119.628906 245.402344 127.648438 247.652344 135.667969 C 228.539062 139.492188 209.425781 143.164062 190.386719 147.285156 C 197.355469 137.992188 203.878906 128.398438 210.625 118.953125 C 217.746094 108.984375 224.789062 99.089844 231.910156 89.121094 C 234.757812 96.617188 237.832031 104.113281 240.457031 111.757812 Z M 248.476562 138.292969 C 246.675781 159.429688 246.078125 180.714844 245.777344 201.929688 C 236.933594 193.160156 200.429688 158.378906 190.761719 149.984375 C 210.097656 146.460938 229.289062 142.265625 248.476562 138.292969 Z M 246.078125 206.125 C 231.609375 216.621094 217.371094 227.5625 203.203125 238.433594 C 200.953125 218.792969 197.882812 199.230469 194.433594 179.59375 C 192.859375 170.523438 191.585938 161.304688 189.484375 152.382812 C 197.730469 160.480469 238.132812 198.707031 246.078125 206.125 Z M 196.980469 214.445312 C 186.636719 219.242188 155.382812 232.285156 147.136719 235.734375 C 154.257812 222.089844 160.105469 209.722656 166.773438 195.78125 C 173.597656 181.542969 181.015625 165.425781 186.9375 152.683594 C 188.886719 164.152344 197.207031 214.296875 196.980469 214.445312 Z M 111.308594 152.234375 C 116.78125 137.84375 122.175781 123.449219 128.097656 109.285156 C 131.546875 101.039062 135.144531 92.792969 138.742188 84.625 C 142.488281 76.378906 146.460938 68.210938 150.210938 59.964844 C 153.433594 74.207031 158.082031 88.296875 163.328125 101.9375 C 163.253906 102.015625 114.90625 148.261719 111.308594 152.234375 Z M 164.375 104.5625 C 164.375 104.636719 164.375 104.636719 164.453125 104.710938 C 170.296875 119.703125 176.894531 134.621094 184.914062 148.636719 C 172.769531 149.011719 116.40625 155.382812 111.382812 156.355469 C 115.65625 152.382812 151.410156 117.453125 164.375 104.5625 Z M 106.886719 155.605469 C 102.539062 147.960938 74.953125 104.710938 69.632812 95.492188 C 74.054688 96.542969 126 106.660156 125.773438 107.1875 C 119.027344 123.375 112.582031 139.117188 106.886719 155.605469 Z M 126.898438 104.789062 C 118.804688 102.539062 71.65625 92.871094 69.332031 92.71875 C 82.675781 87.246094 95.867188 81.25 109.058594 75.480469 C 121.953125 69.859375 134.992188 64.386719 147.8125 58.539062 C 140.464844 73.007812 133.269531 89.796875 126.898438 104.789062 Z M 105.238281 157.929688 C 98.191406 159.429688 45.796875 166.023438 41.148438 166.925781 C 45.648438 155.082031 49.394531 143.765625 53.667969 131.847656 C 57.941406 119.851562 62.363281 107.859375 66.410156 95.71875 C 74.207031 109.285156 105.085938 157.855469 105.238281 157.929688 Z M 106.285156 160.777344 C 102.539062 166.175781 88.972656 195.632812 87.171875 198.855469 C 83.726562 196.53125 80.203125 194.207031 76.753906 191.886719 C 65.511719 184.3125 54.417969 176.371094 42.5 169.921875 C 45.871094 169.171875 94.367188 163.027344 106.285156 160.777344 Z M 71.507812 191.734375 C 82.375 199.003906 93.242188 206.351562 104.1875 213.621094 C 116.03125 221.566406 127.875 229.511719 139.714844 237.457031 C 126.75 235.507812 71.058594 231.6875 56.664062 232.886719 C 54.566406 222.242188 43.097656 182.066406 40.699219 171.871094 C 51.269531 178.09375 61.386719 184.914062 71.507812 191.734375 Z M 140.164062 240.457031 C 137.992188 242.253906 106.511719 261.816406 98.042969 265.714844 C 94.742188 263.617188 59.589844 235.507812 59.066406 235.058594 C 71.65625 234.535156 126.972656 238.65625 140.164062 240.457031 Z M 89.570312 200.429688 C 92.792969 195.332031 106.136719 166.851562 108.984375 162.128906 C 114.90625 173.96875 121.128906 185.738281 126.597656 197.804688 C 132.21875 210.25 137.390625 222.917969 142.113281 235.660156 C 124.648438 223.964844 107.109375 212.199219 89.570312 200.429688 Z M 129.597656 197.28125 C 123.824219 184.390625 117.753906 171.421875 110.632812 159.203125 C 122.777344 157.480469 172.171875 152.082031 184.765625 151.335938 C 178.542969 164.375 170.972656 180.640625 164.152344 194.734375 C 157.480469 208.375 152.457031 219.617188 144.964844 234.835938 C 140.242188 222.089844 135.144531 209.574219 129.597656 197.28125 Z M 146.761719 238.65625 C 155.382812 235.433594 189.859375 220.742188 197.65625 217.292969 C 197.65625 217.292969 200.578125 239.03125 201.703125 249.976562 C 202.601562 258.96875 203.277344 267.964844 203.726562 276.957031 C 184.839844 263.992188 165.652344 251.398438 146.613281 238.65625 C 146.6875 238.65625 146.6875 238.65625 146.761719 238.65625 Z M 203.578125 241.730469 C 217.96875 231.085938 232.433594 220.441406 246.453125 209.273438 C 240.90625 220.066406 235.207031 231.761719 229.136719 242.105469 C 225.691406 248.027344 222.089844 253.871094 218.417969 259.644531 C 216.46875 262.640625 214.519531 265.714844 212.574219 268.640625 C 210.625 271.5625 206.574219 277.257812 206.574219 277.257812 C 205.902344 265.339844 204.851562 253.496094 203.578125 241.730469 Z M 215.046875 269.988281 C 216.917969 267.140625 218.792969 264.214844 220.667969 261.367188 C 224.492188 255.445312 228.089844 249.449219 231.6875 243.378906 C 238.132812 232.433594 244.277344 220.890625 249.824219 209.425781 C 255.070312 212.648438 285.203125 231.011719 292.398438 235.132812 C 292.398438 235.132812 292.398438 235.207031 292.398438 235.207031 C 292.398438 235.207031 292.398438 235.285156 292.398438 235.285156 C 275.535156 244.429688 258.96875 254.246094 241.878906 262.941406 C 231.6875 268.113281 221.265625 272.910156 210.472656 276.957031 C 212.046875 274.636719 213.546875 272.3125 215.046875 269.988281 Z M 292.175781 231.835938 C 285.578125 227.339844 251.175781 207.101562 250.574219 206.800781 C 254.472656 198.929688 293.597656 138.890625 295.773438 136.191406 C 293.824219 152.457031 293.222656 169.097656 292.625 185.4375 C 292.023438 201.03125 291.726562 216.246094 292.175781 231.835938 Z M 295.921875 130.121094 C 295.996094 130.347656 265.941406 102.238281 260.320312 96.992188 C 260.320312 96.992188 263.46875 85.75 264.816406 79.601562 C 265.414062 76.753906 265.867188 74.28125 266.464844 71.433594 C 277.035156 67.683594 287.078125 63.488281 296.746094 58.988281 C 296.148438 82.675781 296.371094 106.359375 295.921875 130.121094 Z M 270.664062 26.460938 C 268.339844 45.273438 265.566406 63.863281 261.292969 82.375 C 260.242188 86.871094 259.121094 91.371094 257.921875 95.792969 C 257.921875 95.792969 211.523438 75.03125 211.523438 74.953125 C 227.113281 64.238281 256.644531 40.625 270.664062 26.460938 Z M 203.351562 20.460938 C 205.75 20.835938 262.492188 25.035156 267.890625 25.484375 C 259.417969 34.328125 219.617188 66.335938 211.074219 71.882812 C 208.75 55.316406 205.976562 37.328125 203.351562 20.460938 Z M 193.910156 70.980469 C 206.125 75.78125 218.195312 81.027344 230.113281 86.722656 C 222.839844 96.917969 215.570312 107.109375 208.375 117.304688 C 201.777344 126.597656 194.808594 135.742188 188.4375 145.261719 C 187.914062 132.445312 186.414062 74.582031 186.1875 68.058594 C 188.8125 69.035156 191.359375 70.007812 193.910156 70.980469 Z M 183.414062 67.011719 C 183.039062 73.679688 185.140625 130.648438 185.964844 144.964844 C 178.992188 131.394531 172.171875 116.855469 166.699219 102.613281 C 160.851562 87.546875 156.355469 72.183594 152.007812 56.589844 C 152.007812 56.589844 173.070312 63.335938 183.414062 67.011719 Z M 157.253906 21.511719 C 158.53125 26.832031 159.804688 32.082031 160.851562 37.253906 C 160.929688 37.550781 153.734375 47.820312 150.210938 53.144531 C 144.589844 42.722656 138.816406 32.304688 132.820312 22.035156 C 131.472656 19.789062 130.121094 17.464844 128.847656 15.214844 C 137.917969 17.839844 157.03125 21.585938 157.253906 21.511719 Z M 109.585938 27.582031 C 114.605469 23.085938 119.777344 18.738281 124.800781 14.242188 C 126.75 17.390625 128.699219 20.539062 130.496094 23.761719 C 136.566406 34.179688 142.414062 44.75 148.035156 55.390625 C 138.140625 59.515625 128.25 63.863281 118.429688 68.210938 C 111.53125 59.964844 104.636719 51.792969 97.441406 43.847656 C 96.542969 42.875 95.71875 41.898438 94.816406 40.851562 C 99.914062 36.652344 104.636719 31.929688 109.585938 27.582031 Z M 72.855469 21.289062 C 80.050781 29.53125 87.847656 37.328125 95.117188 45.496094 C 102.164062 53.367188 109.058594 61.3125 115.730469 69.484375 C 113.105469 70.609375 110.558594 71.808594 107.933594 72.929688 C 94.292969 78.925781 80.425781 84.472656 67.011719 90.921875 C 63.636719 84.847656 49.921875 61.011719 45.421875 54.640625 C 54.566406 43.472656 63.710938 32.378906 72.855469 21.289062 Z M 17.765625 71.808594 C 26.234375 66.484375 43.25 56.066406 43.25 56.066406 C 47.820312 62.664062 56.367188 78.179688 57.339844 80.050781 C 49.921875 78.476562 20.164062 75.78125 12.441406 75.253906 C 14.242188 74.128906 15.964844 73.007812 17.765625 71.808594 Z M 11.84375 77.878906 C 19.414062 78.777344 51.417969 81.625 59.664062 83.425781 C 59.738281 83.425781 59.738281 83.425781 59.8125 83.425781 C 61.464844 86.574219 63.113281 89.644531 64.835938 92.792969 C 59.890625 105.3125 55.617188 118.128906 51.121094 130.796875 C 49.621094 134.992188 48.046875 139.191406 46.546875 143.390625 C 43.921875 138.292969 40.851562 133.421875 38.078125 128.398438 C 34.929688 122.703125 31.855469 116.929688 28.78125 111.234375 C 22.9375 100.214844 17.539062 88.972656 11.84375 77.878906 Z M 23.761719 153.359375 C 18.589844 149.011719 13.566406 144.664062 8.542969 140.164062 C 14.691406 130.945312 20.238281 121.203125 25.484375 111.457031 C 25.710938 111.984375 26.007812 112.433594 26.234375 112.957031 C 29.15625 118.578125 32.15625 124.125 35.230469 129.671875 C 38.378906 135.445312 41.449219 141.441406 45.046875 146.988281 C 45.046875 146.988281 45.121094 147.0625 45.121094 147.0625 C 42.875 153.28125 40.625 159.503906 38.601562 165.726562 C 33.878906 161.378906 28.707031 157.480469 23.761719 153.359375 Z M 8.019531 233.710938 C 13.867188 223.816406 19.1875 213.546875 24.511719 203.277344 C 29.382812 193.910156 34.328125 184.464844 38.675781 174.871094 C 40.324219 183.488281 51.945312 224.265625 53.742188 233.109375 C 47.972656 233.261719 26.832031 233.335938 8.019531 233.710938 Z M 22.1875 260.167969 C 29.683594 268.488281 37.777344 276.433594 45.722656 284.378906 C 49.84375 288.5 54.042969 292.625 58.316406 296.671875 C 62.210938 300.496094 66.109375 304.46875 70.234375 308.066406 C 70.15625 308.066406 70.082031 308.066406 70.007812 308.066406 C 62.210938 309.5625 25.859375 312.636719 22.9375 312.863281 C 22.9375 310.761719 22.9375 309.714844 22.9375 307.617188 C 22.785156 291.875 22.488281 276.058594 22.1875 260.167969 Z M 46.773438 349.890625 C 38.75 350.9375 30.582031 352.664062 22.9375 355.511719 C 23.234375 342.542969 23.085938 328.679688 22.9375 315.710938 C 26.535156 315.1875 66.558594 311.960938 70.757812 310.6875 C 70.832031 310.6875 70.980469 310.613281 71.058594 310.539062 C 67.085938 317.058594 50.59375 343.070312 46.773438 349.890625 Z M 71.507812 309.714844 C 71.507812 309.714844 71.507812 309.640625 71.507812 309.714844 C 71.507812 309.640625 71.507812 309.640625 71.507812 309.714844 Z M 61.164062 295.246094 C 56.964844 291.273438 52.84375 287.226562 48.796875 283.179688 C 40.25 274.785156 32.003906 266.015625 23.535156 257.621094 C 36.652344 248.476562 49.09375 239.855469 55.316406 235.734375 C 55.316406 235.734375 92.871094 266.015625 96.167969 267.589844 C 96.09375 267.664062 81.027344 293.824219 73.304688 306.714844 C 69.410156 302.816406 65.136719 299.144531 61.164062 295.246094 Z M 111.90625 327.328125 C 109.210938 335.5 106.4375 343.59375 104.113281 351.914062 C 100.214844 346.667969 80.050781 317.285156 74.65625 309.789062 C 82.601562 296.597656 90.769531 283.03125 98.191406 269.539062 C 107.109375 274.183594 117.378906 279.207031 126.675781 284.453125 C 121.578125 298.621094 116.628906 312.9375 111.90625 327.328125 Z M 127.722656 281.605469 C 126.972656 281.15625 107.410156 271.1875 100.363281 267.589844 C 107.636719 264.441406 137.84375 246.152344 142.640625 242.328125 C 137.46875 255.371094 132.519531 268.488281 127.722656 281.605469 Z M 165.277344 308.738281 C 158.378906 322.53125 152.234375 336.996094 147.511719 351.765625 C 143.6875 338.871094 139.867188 325.980469 136.644531 312.9375 C 134.542969 304.316406 132.96875 295.699219 131.320312 287.003906 C 135.894531 289.625 140.390625 292.398438 144.886719 295.246094 C 151.707031 299.59375 158.53125 303.941406 165.277344 308.363281 C 165.277344 308.441406 165.277344 308.589844 165.277344 308.738281 Z M 167.074219 306.191406 C 155.007812 298.394531 142.9375 290.449219 130.496094 283.253906 C 130.421875 283.179688 130.347656 283.105469 130.347656 283.03125 C 132.371094 277.410156 134.46875 271.863281 136.566406 266.242188 C 139.640625 258.070312 142.789062 249.898438 146.011719 241.730469 C 153.734375 246.902344 161.527344 252.148438 169.25 257.320312 C 180.417969 264.816406 191.511719 272.386719 202.679688 279.808594 C 196.457031 283.480469 190.535156 287.601562 184.6875 291.875 C 178.691406 296.296875 172.472656 300.871094 167.074219 306.191406 Z M 169.625 307.839844 C 175.09375 303.191406 180.492188 298.472656 186.339844 294.125 C 192.410156 289.625 199.082031 284.980469 205.527344 280.929688 C 205.75 281.082031 216.769531 334.898438 216.621094 334.824219 C 199.980469 326.878906 185.140625 317.808594 169.625 307.839844 Z M 219.542969 335.875 C 219.542969 335.722656 207.925781 280.480469 207.925781 280.480469 C 223.890625 303.566406 258.21875 349.515625 258.21875 349.664062 C 251.324219 347.191406 221.265625 336.472656 219.542969 335.875 Z M 267.890625 320.507812 C 265.265625 329.351562 262.34375 338.195312 260.09375 347.117188 C 260.019531 347.117188 260.019531 347.042969 259.945312 347.042969 C 243.679688 324.554688 227.714844 301.84375 211.074219 279.730469 C 224.039062 274.933594 236.558594 268.9375 248.777344 262.492188 C 251.398438 267.8125 268.039062 298.921875 272.535156 305.066406 C 270.960938 310.164062 269.464844 315.335938 267.890625 320.507812 Z M 273.585938 301.542969 C 269.238281 294.421875 258.667969 274.636719 251.097656 261.292969 C 257.097656 258.070312 263.09375 254.773438 269.011719 251.472656 C 276.882812 247.050781 284.679688 242.628906 292.625 238.355469 C 287.078125 256.496094 281.679688 274.636719 276.210938 292.773438 C 275.308594 295.621094 274.410156 298.546875 273.585938 301.542969 Z M 303.191406 369.453125 C 297.644531 355.886719 281.382812 316.085938 276.808594 306.566406 C 289.25 310.015625 339.921875 323.804688 352.664062 327.777344 C 347.792969 331.601562 310.464844 362.855469 303.191406 369.453125 Z M 341.570312 308.589844 C 344.417969 312.636719 355.285156 325.53125 355.285156 325.53125 C 342.019531 321.558594 289.027344 306.492188 275.683594 303.644531 C 276.734375 300.195312 277.707031 296.746094 278.757812 293.300781 C 284.230469 275.085938 289.777344 256.945312 295.324219 238.808594 C 305.066406 252.148438 325.304688 285.953125 341.570312 308.589844 Z M 336.472656 296.222656 C 329.878906 286.253906 323.207031 276.132812 316.761719 266.015625 C 316.761719 266.015625 342.246094 247.875 353.039062 238.582031 C 352.511719 240.679688 340.894531 279.882812 336.472656 296.222656 Z M 357.535156 222.390625 C 356.261719 226.4375 354.011719 234.609375 354.011719 234.609375 C 354.085938 234.609375 315.636719 263.542969 315.636719 263.542969 C 313.761719 260.617188 296.746094 236.183594 296.746094 236.109375 C 297.496094 235.734375 363.683594 200.65625 364.207031 200.429688 C 361.734375 207.550781 359.785156 215.046875 357.535156 222.390625 Z M 366.003906 195.933594 C 363.382812 197.429688 336.398438 212.121094 336.398438 212.121094 C 335.050781 189.785156 333.699219 168.875 332.5 146.613281 C 338.273438 153.734375 366.003906 195.859375 366.003906 195.933594 Z M 331.75 186.414062 C 332.351562 195.484375 332.800781 203.953125 333.550781 213.023438 C 333.550781 213.023438 297.195312 232.660156 295.398438 233.636719 C 295.324219 233.558594 295.246094 233.484375 295.097656 233.410156 C 295.097656 221.117188 295.023438 209.722656 295.246094 197.429688 C 295.398438 197.355469 316.683594 166.25 329.503906 146.535156 C 330.175781 159.804688 330.925781 173.070312 331.75 186.414062 Z M 328.003906 87.324219 C 318.707031 77.355469 309.414062 67.460938 300.570312 57.117188 C 291.5 46.546875 283.105469 35.378906 274.261719 24.585938 C 295.171875 26.007812 315.5625 27.132812 336.472656 28.332031 C 344.492188 34.628906 355.660156 43.472656 355.585938 43.550781 C 348.539062 54.71875 341.570312 65.886719 334.523438 77.054688 C 332.351562 80.5 330.175781 83.875 328.003906 87.324219 Z M 361.734375 72.183594 C 362.484375 76.753906 363.230469 81.25 363.90625 85.824219 C 363.980469 86.273438 363.980469 87.246094 363.980469 87.246094 C 363.90625 87.324219 339.171875 88.445312 330.703125 88.222656 C 331.976562 86.199219 333.25 84.25 334.523438 82.226562 C 342.167969 70.082031 349.890625 57.867188 357.535156 45.722656 C 358.660156 54.566406 360.308594 63.410156 361.734375 72.183594 Z M 361.734375 72.183594 " fill-opacity="1" fill-rule="nonzero"/></svg>